<svg width="209.886" height="209.886" viewBox="0 0 209.886 209.886" fill="none" xmlns="http://www.w3.org/2000/svg" aria-label="Frozen Custard / Ice Cream Logo"><path d="M156.707 110.122h-.158c2.344-3.098 3.788-6.912 3.788-11.088v-3.948c0-5.651-2.203-10.551-6.203-13.791a16 16 0 0 0-5.216-2.805c1.021-6.884 2.19-21.335-4.626-27.768a12 12 0 0 0-3.848-2.473C142.751 22.703 130.01 1.965 119.618.141c-4.04-.722-8.916 1.202-10.538 8.692-1.734 8.014-7.157 8.819-17.394 9.649-5.921.484-12.633 1.029-18.516 4.197-4.191 2.255-6.885 5.582-8.007 9.883-1.632 6.257.639 13.131 2.607 17.467-3.605.91-6.711 2.399-9.059 4.746-7.44 7.439-4.008 19.763-1.907 25.307-.405.302-.809.606-1.191.944-3.949 3.5-6.125 8.49-6.125 14.061v3.948c0 4.177 1.444 7.99 3.788 11.088h-.093a3.695 3.695 0 1 0 0 7.39h7.894l13.133 89.216a3.69 3.69 0 0 0 3.655 3.157h57.787a3.69 3.69 0 0 0 3.655-3.157l13.133-89.216h4.264a3.695 3.695 0 0 0 3.695-3.695 3.69 3.69 0 0 0-3.692-3.696" fill="#fff"/></svg>