<svg xmlns="http://www.w3.org/2000/svg" xmlns:bx="https://boxy-svg.com" id="svg2" viewBox="78.32 233.66 717.15 231.21">
  <defs>
    <style>@import url(https://fonts.googleapis.com/css2?family=Raleway%3Aital%2Cwght%400%2C100..900%3B1%2C100..900&amp;display=swap);</style>
  </defs>
  <path style="stroke-width: 12; stroke-dasharray: none; stroke-linecap: butt; stroke-dashoffset: 0; stroke-linejoin: miter; stroke-miterlimit: 4; fill-rule: nonzero; opacity: 1; fill: rgb(255, 255, 255);" vector-effect="non-scaling-stroke" d="M 185.541 343.786 L 185.383 343.786 C 187.727 340.688 189.171 336.874 189.171 332.698 L 189.171 328.75 C 189.171 323.099 186.968 318.199 182.968 314.959 C 181.419 313.708 179.65 312.756 177.752 312.154 C 178.773 305.27 179.942 290.819 173.126 284.386 C 172.013 283.323 170.707 282.483 169.278 281.913 C 171.585 256.367 158.844 235.629 148.452 233.805 C 144.412 233.083 139.536 235.007 137.914 242.497 C 136.18 250.511 130.757 251.316 120.52 252.146 C 114.599 252.63 107.887 253.175 102.004 256.343 C 97.813 258.598 95.119 261.925 93.997 266.226 C 92.365 272.483 94.636 279.357 96.604 283.693 C 92.999 284.603 89.893 286.092 87.545 288.439 C 80.105 295.878 83.537 308.202 85.638 313.746 C 85.233 314.048 84.829 314.352 84.447 314.69 C 80.498 318.19 78.322 323.18 78.322 328.751 L 78.322 332.699 C 78.322 336.876 79.766 340.689 82.11 343.787 L 82.017 343.787 C 79.172 343.787 77.394 346.866 78.817 349.33 C 79.477 350.473 80.697 351.177 82.017 351.177 L 89.911 351.177 L 103.044 440.393 C 103.308 442.207 104.865 443.552 106.699 443.55 L 164.486 443.55 C 166.319 443.552 167.876 442.207 168.141 440.393 L 181.274 351.177 L 185.538 351.177 C 187.578 351.177 189.233 349.523 189.233 347.482 C 189.236 345.441 187.582 343.785 185.541 343.786" stroke-linecap="round"/>
  <text style="fill: rgb(255, 255, 255); font-family: Raleway, sans-serif; font-size: 82px; font-weight: 900; line-height: 75.1391px; white-space: pre;" transform="matrix(1, 0, 0, 1, -104.258575, 99.687141)"><tspan x="318.987" y="265.182">Hibbards</tspan><tspan x="318.987" dy="1em">​</tspan><tspan>Custard Notifier</tspan></text>
</svg>